<svg width="117" height="36" viewBox="0 0 117 36" fill="none" xmlns="http://www.w3.org/2000/svg">
<path d="M11.1 30.6C10.6 30.6 9.90001 30.6 9.20001 30.6C8.50001 30.6 7.8 30.5 7 30.4C6.2 30.3 5.50001 30.2 4.70001 30C3.90001 29.9 3.30001 29.7 2.60001 29.4C0.800006 28.7 0 27.6 0 25.9V3.6C0 2.9 0.200006 2.4 0.600006 2C1.00001 1.6 1.50001 1.3 2.10001 1.1C3.50001 0.699998 4.9 0.400001 6.5 0.200001C8 0.100001 9.40001 0 10.6 0C13.1 0 15.4 0.300002 17.4 0.900002C19.4 1.5 21.2 2.4 22.6 3.7C24.1 5 25.2 6.6 26 8.5C26.8 10.4 27.2 12.7 27.2 15.3C27.2 17.9 26.8 20.1 26 22C25.2 23.9 24.1 25.5 22.7 26.8C21.3 28.1 19.6 29.1 17.6 29.7C15.7 30.2 13.5 30.6 11.1 30.6ZM8.5 23.7C8.9 23.8 9.29999 23.8 9.79999 23.9C10.3 23.9 10.8 24 11.2 24C12.3 24 13.3 23.8 14.2 23.5C15.1 23.2 15.9 22.7 16.6 22C17.3 21.3 17.8 20.5 18.1 19.4C18.5 18.3 18.7 17 18.7 15.5C18.7 12.6 18 10.5 16.7 9C15.4 7.5 13.6 6.8 11.3 6.8C10.9 6.8 10.4 6.8 9.89999 6.8C9.39999 6.8 9 6.9 8.5 6.9V23.7Z" fill="#43AEBE"/>
<path d="M36.8 13.9C38 13.9 39 14 40 14.3C41 14.6 41.8 14.9 42.4 15.4C43.1 15.9 43.6 16.5 44 17.2C44.4 17.9 44.5 18.8 44.5 19.8V26.9C44.5 27.5 44.3 27.9 44 28.3C43.7 28.7 43.3 29 42.9 29.2C41.5 30 39.6 30.4 37 30.4C35.9 30.4 34.9 30.3 33.9 30.1C33 29.9 32.2 29.6 31.6 29.1C30.9 28.7 30.4 28.1 30.1 27.5C29.7 26.8 29.6 26.1 29.6 25.2C29.6 23.7 30 22.6 30.9 21.8C31.8 21 33.1 20.5 35 20.3L39.2 19.9V19.7C39.2 19.1 38.9 18.6 38.4 18.4C37.9 18.1 37.1 18 36 18C35.2 18 34.4 18.1 33.6 18.3C32.8 18.5 32.1 18.7 31.5 18.9C31.2 18.7 31 18.4 30.8 18C30.6 17.6 30.5 17.2 30.5 16.8C30.5 16.2 30.6 15.8 30.9 15.5C31.2 15.2 31.6 14.9 32.1 14.7C32.7 14.5 33.4 14.3 34.3 14.2C35.3 13.9 36.1 13.9 36.8 13.9ZM37.1 26.4C37.5 26.4 37.9 26.4 38.3 26.3C38.7 26.2 39.1 26.1 39.3 26V23.4L37 23.6C36.4 23.6 35.9 23.8 35.5 24C35.1 24.2 34.9 24.5 34.9 25C34.9 25.4 35.1 25.8 35.4 26C35.7 26.3 36.3 26.4 37.1 26.4Z" fill="#444B54"/>
<path d="M54.9 13.9C56.2 13.9 57.4 14.1 58.5 14.4C59.6 14.7 60.5 15.2 61.3 15.9C62.1 16.6 62.7 17.4 63.2 18.5C63.6 19.5 63.9 20.8 63.9 22.2C63.9 23.6 63.7 24.8 63.3 25.8C62.9 26.8 62.4 27.7 61.7 28.4C61 29.1 60.1 29.6 59.2 30C58.3 30.4 57.1 30.5 55.9 30.5C55 30.5 54.1 30.4 53.3 30.1V35.4C53.1 35.5 52.7 35.5 52.3 35.6C51.8 35.7 51.4 35.7 50.9 35.7C50.4 35.7 50 35.7 49.6 35.6C49.2 35.5 48.9 35.4 48.7 35.2C48.4 35 48.3 34.7 48.1 34.4C48 34 48 33.5 48 33V17.7C48 17.1 48.1 16.7 48.4 16.3C48.6 15.9 49 15.6 49.4 15.3C50.1 14.9 50.9 14.5 51.9 14.3C52.6 14 53.7 13.9 54.9 13.9ZM54.9 26.1C57.1 26.1 58.2 24.8 58.2 22.2C58.2 20.8 57.9 19.8 57.4 19.2C56.9 18.5 56.1 18.2 55 18.2C54.6 18.2 54.2 18.2 53.9 18.3C53.6 18.4 53.3 18.5 53.1 18.6V25.6C53.4 25.7 53.6 25.8 53.9 25.9C54.3 26 54.6 26.1 54.9 26.1Z" fill="#444B54"/>
<path d="M66.5 14.6C66.7 14.5 67 14.5 67.5 14.4C68 14.3 68.4 14.3 68.9 14.3C69.4 14.3 69.8 14.3 70.2 14.4C70.6 14.5 70.9 14.6 71.1 14.8C71.4 15 71.6 15.3 71.7 15.6C71.8 15.9 71.9 16.4 71.9 16.9V23.8C71.9 24.7 72.1 25.3 72.5 25.7C72.9 26.1 73.5 26.3 74.4 26.3C74.9 26.3 75.3 26.3 75.6 26.2C75.9 26.1 76.1 26 76.3 25.9V14.6C76.5 14.5 76.8 14.5 77.3 14.4C77.8 14.3 78.2 14.3 78.7 14.3C79.2 14.3 79.6 14.3 80 14.4C80.4 14.5 80.7 14.6 80.9 14.8C81.2 15 81.4 15.3 81.5 15.6C81.6 15.9 81.7 16.4 81.7 16.9V26.6C81.7 27.7 81.3 28.5 80.4 29C79.7 29.5 78.8 29.8 77.7 30.1C76.7 30.3 75.5 30.5 74.3 30.5C73.1 30.5 72.1 30.4 71.1 30.1C70.1 29.8 69.3 29.4 68.6 28.9C67.9 28.4 67.4 27.7 67 26.8C66.6 26 66.4 24.9 66.4 23.7L66.5 14.6Z" fill="#444B54"/>
<path d="M90.4 29.8C90.2 29.8 89.8 29.9 89.4 30C88.9 30.1 88.5 30.1 88 30.1C87.5 30.1 87.1 30.1 86.7 30C86.3 29.9 86 29.8 85.8 29.6C85.5 29.4 85.3 29.1 85.2 28.8C85.1 28.5 85 28 85 27.5V9.10002C85.2 9.10002 85.6 9.00002 86 8.90002C86.5 8.80002 86.9 8.80002 87.4 8.80002C87.9 8.80002 88.3 8.80002 88.7 8.90002C89.1 9.00002 89.4 9.10002 89.6 9.30002C89.9 9.50002 90.1 9.80002 90.2 10.1C90.3 10.4 90.4 10.9 90.4 11.4V29.8Z" fill="#444B54"/>
<path d="M92.8 32C93.3 31.7 93.6 31.3 93.8 30.8C94 30.3 94.1 29.7 94.1 29.1V14.6C94.3 14.6 94.7 14.5 95.1 14.4C95.6 14.3 96 14.3 96.5 14.3C97 14.3 97.4 14.3 97.8 14.4C98.2 14.5 98.5 14.6 98.7 14.8C99 15 99.2 15.3 99.3 15.6C99.4 15.9 99.5 16.4 99.5 16.9V29.6C99.5 30.5 99.4 31.3 99.2 32C99 32.7 98.7 33.3 98.3 33.9C97.9 34.5 97.4 34.8 96.9 35.1C96.3 35.4 95.7 35.5 95 35.5C94.1 35.5 93.3 35.2 92.8 34.7C92.3 34.1 92 33.4 92 32.6L92.8 32ZM93.9 10C93.9 9.20001 94.2 8.50001 94.7 8.00001C95.2 7.40001 96 7.20001 96.9 7.20001C97.8 7.20001 98.5 7.50001 99.1 8.00001C99.7 8.50001 99.9 9.20001 99.9 10C99.9 10.8 99.6 11.5 99.1 12C98.6 12.6 97.8 12.8 96.9 12.8C96 12.8 95.3 12.5 94.7 12C94.1 11.5 93.9 10.8 93.9 10Z" fill="#444B54"/>
<path d="M109.3 13.9C110.5 13.9 111.5 14 112.5 14.3C113.5 14.6 114.3 14.9 114.9 15.4C115.6 15.9 116.1 16.5 116.5 17.2C116.9 17.9 117 18.8 117 19.8V26.9C117 27.5 116.8 27.9 116.5 28.3C116.2 28.7 115.8 29 115.4 29.2C114 30 112.1 30.4 109.5 30.4C108.4 30.4 107.4 30.3 106.4 30.1C105.5 29.9 104.7 29.6 104.1 29.1C103.4 28.7 102.9 28.1 102.6 27.5C102.2 26.8 102.1 26.1 102.1 25.2C102.1 23.7 102.5 22.6 103.4 21.8C104.3 21 105.6 20.5 107.5 20.3L111.7 19.9V19.7C111.7 19.1 111.4 18.6 110.9 18.4C110.4 18.1 109.6 18 108.5 18C107.7 18 106.9 18.1 106.1 18.3C105.3 18.5 104.6 18.7 104 18.9C103.7 18.7 103.5 18.4 103.3 18C103.1 17.6 103 17.2 103 16.8C103 16.2 103.1 15.8 103.4 15.5C103.7 15.2 104.1 14.9 104.6 14.7C105.2 14.5 105.9 14.3 106.8 14.2C107.8 13.9 108.6 13.9 109.3 13.9ZM109.6 26.4C110 26.4 110.4 26.4 110.8 26.3C111.2 26.2 111.6 26.1 111.8 26V23.4L109.5 23.6C108.9 23.6 108.4 23.8 108 24C107.6 24.2 107.4 24.5 107.4 25C107.4 25.4 107.6 25.8 107.9 26C108.2 26.3 108.8 26.4 109.6 26.4Z" fill="#444B54"/>
</svg>
