<svg width="16" height="16" viewBox="0 0 16 16" fill="none" xmlns="http://www.w3.org/2000/svg">
<path d="M0.333238 14.0234C-0.111079 14.4755 -0.111079 15.2087 0.333238 15.6608C0.777556 16.113 1.49794 16.113 1.94226 15.6608L7.99999 9.49589L14.0577 15.6609C14.5021 16.113 15.2224 16.113 15.6668 15.6609C16.1111 15.2087 16.1111 14.4755 15.6668 14.0234L9.60901 7.85839L15.3885 1.97663C15.8328 1.52445 15.8328 0.791319 15.3885 0.339137C14.9442 -0.113046 14.2238 -0.113045 13.7795 0.339137L7.99999 6.22089L2.22055 0.339152C1.77623 -0.113031 1.05585 -0.113031 0.611531 0.339152C0.167213 0.791334 0.167213 1.52447 0.611531 1.97665L6.39098 7.85839L0.333238 14.0234Z" fill="#808080"/>
</svg>
